P3
35 28
255
255 255 255 255 255 255 255 255 255 255 255 255 255 255 255 255 255 255 255 255 255 255 255 255 255 255 255 255 255 255 255 255 255 255 255 255 255 255 255 255 255 255 255 255 255 255 255 255 255 255 255 255 255 255 255 255 255 255 255 255 255 255 255 255 255 255 255 255 255 255 255 255 255 255 255 255 255 255 255 255 255 255 255 255 255 255 255 255 255 255 255 255 255 255 255 255 255 255 255 255 255 255 255 255 255 
255 255 255 255 255 255 255 255 255 255 255 255 255 255 255 255 255 255 255 255 255 255 255 255 255 255 255 255 255 255 255 255 255 255 255 255 255 255 255 255 255 255 255 255 255 255 255 255 255 255 255 255 255 255 255 255 255 255 255 255 255 255 255 255 255 255 255 255 255 255 255 255 255 255 255 255 255 255 255 255 255 255 255 255 255 255 255 255 255 255 255 255 255 255 255 255 255 255 255 255 255 255 255 255 255 
255 255 255 255 255 255 255 255 255 255 255 255 255 255 255 255 255 255 255 255 255 255 255 255 0 0 0 0 0 0 0 0 0 0 0 0 0 0 0 0 0 0 0 0 0 0 0 0 0 0 0 0 0 0 0 0 0 0 0 0 0 0 0 0 0 0 0 0 0 0 0 0 0 0 0 0 0 0 0 0 0 255 255 255 255 255 255 255 255 255 255 255 255 255 255 255 255 255 255 255 255 255 255 255 255 
255 255 255 255 255 255 255 255 255 255 255 255 255 255 255 255 255 255 255 255 255 0 0 0 210 180 140 245 222 179 245 222 179 245 222 179 245 222 179 245 222 179 245 222 179 245 222 179 245 222 179 245 222 179 245 222 179 245 222 179 245 222 179 245 222 179 245 222 179 245 222 179 245 222 179 245 222 179 210 180 140 0 0 0 255 255 255 255 255 255 255 255 255 255 255 255 255 255 255 255 255 255 255 255 255 
255 255 255 255 255 255 255 255 255 255 255 255 255 255 255 255 255 255 255 255 255 0 0 0 245 222 179 245 222 179 0 0 0 0 0 0 0 0 0 0 0 0 0 0 0 0 0 0 0 0 0 0 0 0 0 0 0 0 0 0 0 0 0 0 0 0 0 0 0 0 0 0 0 0 0 245 222 179 245 222 179 0 0 0 255 255 255 255 255 255 255 255 255 255 255 255 255 255 255 255 255 255 255 255 255 
255 255 255 255 255 255 255 255 255 255 255 255 255 255 255 255 255 255 255 255 255 0 0 0 245 222 179 0 0 0 46 139 87 46 139 87 46 139 87 46 139 87 46 139 87 46 139 87 46 139 87 46 139 87 46 139 87 46 139 87 46 139 87 46 139 87 0 0 255 0 0 255 46 139 87 0 0 0 245 222 179 0 0 0 255 255 255 255 255 255 255 255 255 255 255 255 255 255 255 255 255 255 255 255 255 
255 255 255 255 255 255 255 255 255 255 255 255 255 255 255 255 255 255 255 255 255 0 0 0 245 222 179 0 0 0 46 139 87 255 0 0 255 0 0 255 0 0 255 0 0 255 0 0 255 0 0 46 139 87 46 139 87 46 139 87 46 139 87 46 139 87 0 0 255 0 0 255 46 139 87 0 0 0 245 222 179 0 0 0 255 255 255 255 255 255 255 255 255 255 255 255 255 255 255 255 255 255 255 255 255 
255 255 255 255 255 255 255 255 255 255 255 255 255 255 255 255 255 255 255 255 255 0 0 0 245 222 179 0 0 0 46 139 87 255 250 205 255 250 205 255 250 205 255 250 205 255 250 205 255 250 205 46 139 87 46 139 87 46 139 87 46 139 87 46 139 87 46 139 87 46 139 87 46 139 87 0 0 0 245 222 179 0 0 0 255 255 255 255 255 255 255 255 255 255 255 255 255 255 255 255 255 255 255 255 255 
255 255 255 255 255 255 255 255 255 255 255 255 255 255 255 255 255 255 255 255 255 0 0 0 245 222 179 0 0 0 46 139 87 245 222 179 255 250 205 255 250 205 255 250 205 255 250 205 255 250 205 46 139 87 46 139 87 46 139 87 46 139 87 46 139 87 245 222 179 245 222 179 46 139 87 0 0 0 245 222 179 0 0 0 255 255 255 255 255 255 255 255 255 255 255 255 255 255 255 255 255 255 255 255 255 
255 255 255 255 255 255 255 255 255 255 255 255 255 255 255 255 255 255 255 255 255 0 0 0 245 222 179 0 0 0 46 139 87 245 222 179 255 250 205 255 250 205 255 250 205 255 250 205 255 250 205 178 34 34 255 0 0 255 0 0 46 139 87 46 139 87 245 222 179 245 222 179 46 139 87 0 0 0 245 222 179 0 0 0 255 255 255 255 255 255 255 255 255 255 255 255 255 255 255 255 255 255 255 255 255 
255 255 255 255 255 255 255 255 255 255 255 255 255 255 255 255 255 255 255 255 255 0 0 0 245 222 179 0 0 0 46 139 87 245 222 179 255 250 205 255 250 205 255 250 205 255 250 205 255 250 205 210 180 140 210 180 140 210 180 140 46 139 87 46 139 87 46 139 87 46 139 87 46 139 87 0 0 0 245 222 179 0 0 0 255 255 255 255 255 255 255 255 255 255 255 255 255 255 255 255 255 255 255 255 255 
255 255 255 255 255 255 255 255 255 255 255 255 255 255 255 255 255 255 255 255 255 0 0 0 245 222 179 0 0 0 46 139 87 46 139 87 46 139 87 46 139 87 210 180 140 210 180 140 210 180 140 210 180 140 210 180 140 210 180 140 46 139 87 46 139 87 46 139 87 46 139 87 46 139 87 0 0 0 245 222 179 0 0 0 255 255 255 255 255 255 255 255 255 255 255 255 255 255 255 255 255 255 255 255 255 
255 255 255 255 255 255 255 255 255 255 255 255 255 255 255 255 255 255 255 255 255 0 0 0 245 222 179 0 0 0 46 139 87 46 139 87 46 139 87 46 139 87 210 180 140 210 180 140 210 180 140 210 180 140 210 180 140 210 180 140 46 139 87 46 139 87 46 139 87 46 139 87 46 139 87 0 0 0 245 222 179 0 0 0 255 255 255 255 255 255 255 255 255 255 255 255 255 255 255 255 255 255 255 255 255 
255 255 255 255 255 255 255 255 255 255 255 255 255 255 255 255 255 255 255 255 255 0 0 0 245 222 179 0 0 0 46 139 87 46 139 87 46 139 87 46 139 87 210 180 140 210 180 140 210 180 140 210 180 140 210 180 140 210 180 140 46 139 87 46 139 87 46 139 87 46 139 87 46 139 87 0 0 0 245 222 179 0 0 0 255 255 255 255 255 255 255 255 255 255 255 255 255 255 255 255 255 255 255 255 255 
255 255 255 255 255 255 255 255 255 255 255 255 255 255 255 255 255 255 255 255 255 0 0 0 245 222 179 0 0 0 46 139 87 46 139 87 46 139 87 46 139 87 46 139 87 46 139 87 46 139 87 46 139 87 46 139 87 46 139 87 46 139 87 46 139 87 0 0 255 0 0 255 46 139 87 0 0 0 245 222 179 0 0 0 255 255 255 255 255 255 255 255 255 255 255 255 255 255 255 255 255 255 255 255 255 
255 255 255 255 255 255 255 255 255 255 255 255 255 255 255 255 255 255 255 255 255 0 0 0 245 222 179 245 222 179 0 0 0 0 0 0 0 0 0 0 0 0 0 0 0 0 0 0 0 0 0 0 0 0 0 0 0 0 0 0 0 0 0 0 0 0 0 0 0 0 0 0 0 0 0 245 222 179 245 222 179 0 0 0 255 255 255 255 255 255 255 255 255 255 255 255 255 255 255 255 255 255 255 255 255 
255 255 255 255 255 255 255 255 255 255 255 255 255 255 255 255 255 255 255 255 255 0 0 0 210 180 140 245 222 179 245 222 179 245 222 179 245 222 179 245 222 179 245 222 179 245 222 179 245 222 179 245 222 179 245 222 179 245 222 179 245 222 179 245 222 179 245 222 179 245 222 179 245 222 179 245 222 179 210 180 140 0 0 0 255 255 255 255 255 255 255 255 255 255 255 255 255 255 255 255 255 255 255 255 255 
255 255 255 255 255 255 255 255 255 255 255 255 255 255 255 255 255 255 255 255 255 0 0 0 0 0 0 0 0 0 0 0 0 0 0 0 0 0 0 0 0 0 0 0 0 0 0 0 0 0 0 0 0 0 0 0 0 0 0 0 0 0 0 0 0 0 0 0 0 0 0 0 0 0 0 0 0 0 0 0 0 0 0 0 255 255 255 255 255 255 255 255 255 255 255 255 255 255 255 255 255 255 255 255 255 
255 255 255 255 255 255 255 255 255 255 255 255 255 255 255 255 255 255 255 255 255 255 255 255 255 255 255 0 0 0 47 79 79 47 79 79 47 79 79 47 79 79 47 79 79 47 79 79 47 79 79 47 79 79 47 79 79 47 79 79 47 79 79 47 79 79 47 79 79 47 79 79 47 79 79 0 0 0 255 255 255 255 255 255 255 255 255 255 255 255 255 255 255 255 255 255 255 255 255 255 255 255 255 255 255 
255 255 255 255 255 255 255 255 255 255 255 255 255 255 255 0 0 0 0 0 0 0 0 0 0 0 0 0 0 0 0 0 0 0 0 0 0 0 0 0 0 0 0 0 0 0 0 0 0 0 0 0 0 0 0 0 0 0 0 0 0 0 0 0 0 0 0 0 0 0 0 0 0 0 0 0 0 0 0 0 0 0 0 0 0 0 0 0 0 0 255 255 255 255 255 255 255 255 255 255 255 255 255 255 255 
255 255 255 255 255 255 255 255 255 255 255 255 0 0 0 255 250 205 255 250 205 255 250 205 255 250 205 255 250 205 255 250 205 255 250 205 255 250 205 255 250 205 255 250 205 255 250 205 255 250 205 255 250 205 255 250 205 255 250 205 255 250 205 255 250 205 255 250 205 255 250 205 255 250 205 255 250 205 255 250 205 255 250 205 255 250 205 255 250 205 0 0 0 255 255 255 255 255 255 255 255 255 255 255 255 
255 255 255 255 255 255 255 255 255 0 0 0 255 250 205 255 250 205 0 0 0 255 250 205 0 0 0 255 250 205 0 0 0 255 250 205 0 0 0 255 250 205 0 0 0 255 250 205 0 0 0 255 250 205 0 0 0 255 250 205 0 0 0 255 250 205 0 0 0 255 250 205 255 250 205 255 250 205 0 0 0 255 250 205 0 0 0 255 250 205 255 250 205 0 0 0 255 255 255 255 255 255 255 255 255 
255 255 255 255 255 255 0 0 0 255 250 205 255 250 205 0 0 0 255 250 205 0 0 0 255 250 205 0 0 0 255 250 205 0 0 0 255 250 205 0 0 0 255 250 205 0 0 0 255 250 205 0 0 0 255 250 205 0 0 0 255 250 205 0 0 0 255 250 205 0 0 0 255 250 205 0 0 0 255 250 205 0 0 0 255 250 205 0 0 0 255 250 205 255 250 205 0 0 0 255 255 255 255 255 255 
255 255 255 255 255 255 0 0 0 255 250 205 255 250 205 255 250 205 255 250 205 255 250 205 255 250 205 255 250 205 255 250 205 255 250 205 255 250 205 255 250 205 255 250 205 255 250 205 255 250 205 255 250 205 255 250 205 255 250 205 255 250 205 255 250 205 255 250 205 255 250 205 255 250 205 255 250 205 255 250 205 255 250 205 255 250 205 255 250 205 255 250 205 255 250 205 0 0 0 255 255 255 255 255 255 
255 255 255 255 255 255 0 0 0 0 0 0 0 0 0 0 0 0 0 0 0 0 0 0 0 0 0 0 0 0 0 0 0 0 0 0 0 0 0 0 0 0 0 0 0 0 0 0 0 0 0 0 0 0 0 0 0 0 0 0 0 0 0 0 0 0 0 0 0 0 0 0 0 0 0 0 0 0 0 0 0 0 0 0 0 0 0 0 0 0 0 0 0 0 0 0 0 0 0 255 255 255 255 255 255 
255 255 255 255 255 255 255 255 255 0 0 0 0 0 0 0 0 0 0 0 0 0 0 0 0 0 0 0 0 0 0 0 0 0 0 0 0 0 0 0 0 0 0 0 0 0 0 0 0 0 0 0 0 0 0 0 0 0 0 0 0 0 0 0 0 0 0 0 0 0 0 0 0 0 0 0 0 0 0 0 0 0 0 0 0 0 0 0 0 0 0 0 0 0 0 0 255 255 255 255 255 255 255 255 255 
255 255 255 255 255 255 255 255 255 255 255 255 255 255 255 255 255 255 255 255 255 255 255 255 255 255 255 255 255 255 255 255 255 255 255 255 255 255 255 255 255 255 255 255 255 255 255 255 255 255 255 255 255 255 255 255 255 255 255 255 255 255 255 255 255 255 255 255 255 255 255 255 255 255 255 255 255 255 255 255 255 255 255 255 255 255 255 255 255 255 255 255 255 255 255 255 255 255 255 255 255 255 255 255 255 
255 255 255 255 255 255 255 255 255 255 255 255 255 255 255 255 255 255 255 255 255 255 255 255 255 255 255 255 255 255 255 255 255 255 255 255 255 255 255 255 255 255 255 255 255 255 255 255 255 255 255 255 255 255 255 255 255 255 255 255 255 255 255 255 255 255 255 255 255 255 255 255 255 255 255 255 255 255 255 255 255 255 255 255 255 255 255 255 255 255 255 255 255 255 255 255 255 255 255 255 255 255 255 255 255 
